# AST/ASF file generated using VICON BodyLanguage
# -----------------------------------------------
:version 1.10
:name VICON
:units
  mass 1.0
  length 0.45
  angle deg
:documentation
   .ast/.asf automatically generated from VICON data using
   VICON BodyBuilder and BodyLanguage model FoxedUp or BRILLIANT.MOD
:root
   order TX TY TZ RX RY RZ
   axis XYZ
   position 0 0 0  
   orientation 0 0 0 
:bonedata
  begin
     id 1 
     name lhipjoint
     direction 0.645422 -0.672597 0.361999 
     length 2.39934 
     axis 0 0 0  XYZ
  end
  begin
     id 2 
     name lfemur
     direction 0.34202 -0.939693 0  
     length 6.58112  
     axis 0 0 20  XYZ
    dof rx ry rz
    limits (-160.0 20.0)
           (-70.0 70.0)
           (-60.0 70.0)
  end
  begin
     id 3 
     name ltibia
     direction 0.34202 -0.939693 0   
     length 7.02673   
     axis 0 0 20   XYZ
    dof rx
    limits (-10.0 170.0)
  end
  begin
     id 4 
     name lfoot
     direction 0.0835106 -0.229444 0.969733   
     length 2.08772   
     axis -90 7.62852e-016 20   XYZ
    dof rx rz
    limits (-45.0 90.0)
           (-70.0 20.0)
  end
  begin
     id 5 
     name ltoes
     direction 1.5358e-011 -4.21925e-011 1   
     length 1.04844   
     axis -90 7.62852e-016 20   XYZ
    dof rx
    limits (-90.0 20.0)
  end
  begin
     id 6 
     name rhipjoint
     direction -0.644959 -0.672941 0.362185   
     length 2.39812  
     axis 0 0 0  XYZ 
  end
  begin
     id 7 
     name rfemur
     direction -0.34202 -0.939693 0   
     length 6.67015   
     axis 0 0 -20   XYZ
    dof rx ry rz
    limits (-160.0 20.0)
           (-70.0 70.0)
           (-70.0 60.0)
  end
  begin
     id 8 
     name rtibia
     direction -0.34202 -0.939693 0   
     length 7.35735   
     axis 0 0 -20   XYZ
    dof rx
    limits (-10.0 170.0)
 end
 begin
     id 9 
     name rfoot
     direction -0.0670769 -0.184292 0.98058   
     length 2.25469  
     axis -90 -7.62852e-016 -20   XYZ
    dof rx rz
    limits (-45.0 90.0)
           (-20.0 70.0)
  end
  begin
     id 10 
     name rtoes
     direction -1.53575e-011 -4.21908e-011 1   
     length 1.13399   
     axis -90 -7.62852e-016 -20   XYZ
    dof rx
    limits (-90.0 20.0)
  end
  begin
     id 11 
     name lowerback
     direction -0.0188328 0.993434 -0.112847   
     length 2.27656   
     axis 0 0 0   XYZ
    dof rx ry rz
    limits (-20.0 45.0)
           (-30.0 30.0)
           (-30.0 30.0)
  end
  begin
     id 12 
     name upperback
     direction 0.00983139 0.998968 -0.04435   
     length 2.28631   
     axis 0 0 0   XYZ
    dof rx ry rz
    limits (-20.0 45.0)
           (-30.0 30.0)
           (-30.0 30.0)
  end
  begin
     id 13 
     name thorax
     direction 0.0177718 0.999807 0.00833073   
     length 2.30999   
     axis 0 0 0   XYZ
    dof rx ry rz
    limits (-20.0 45.0)
           (-30.0 30.0)
           (-30.0 30.0)
  end
  begin
     id 14 
     name lowerneck
     direction -0.0835025 0.993181 0.0813558   
     length 1.39447   
     axis 0 0 0   XYZ
    dof rx ry rz
    limits (-20.0 45.0)
           (-30.0 30.0)
           (-30.0 30.0)
  end
  begin
     id 15 
     name upperneck
     direction 0.210059 0.976535 0.0474817   
     length 1.39882   
     axis 0 0 0   XYZ
    dof rx ry rz
    limits (-20.0 45.0)
           (-30.0 30.0)
           (-30.0 30.0)
  end
  begin
     id 16
     name head
     direction 0.0780891 0.996944 -0.00207154  
     length 1.41828  
     axis 0 0 0   XYZ
    dof rx ry rz
    limits (-20.0 45.0)
           (-30.0 30.0)
           (-30.0 30.0)
  end
  begin
     id 17 
     name lclavicle
     direction 0.982414 0.166355 -0.0847829  
     length 3.57922  
     axis 0 0 0   XYZ
    dof ry rz
    limits (-20.0 10.0)
           (0.0 20.0)
  end
  begin
     id 18 
     name lhumerus
     direction 1 -4.48975e-011 5.47647e-028   
     length 4.76405   
     axis -180 -30 -90   XYZ
    dof rx ry rz
    limits (-60.0 90.0)
           (-90.0 90.0)
           (-90.0 90.0)
  end
  begin
     id 19
     name lradius
     direction 1 -4.48949e-011 -8.32142e-027   
     length 3.13759   
     axis -180 -30 -90   XYZ
    dof rx
    limits (-10.0 170.0)
  end
  begin
     id 20
     name lwrist
     direction 1 -4.48978e-011 -1.32705e-026   
     length 1.56879   
     axis 9.60836e-015 90 90   XYZ
    dof ry
    limits (-180.0 0.0)
 end
  begin
     id 21 
     name lhand
     direction 1 -4.48975e-011 -2.65409e-026   
     length 0.732262   
     axis 1.69354e-014 90 90   XYZ
    dof rx rz
    limits (-90.0 90.0)
           (-45.0 45.0)
  end
  begin
     id 22 
     name lfingers
     direction 1 -4.48923e-011 -5.30819e-026   
     length 0.590368   
     axis 3.38708e-014 90 90   XYZ
    dof rx
    limits (0.0 90.0)
  end
  begin
     id 23
     name lthumb
     direction 0.707107 -6.34914e-011 0.707107   
     length 0.847654   
     axis -90 45 2.85299e-015   XYZ
    dof rx rz
    limits (-45.0 45.0)
           (-45.0 45.0)
  end
  begin
     id 24 
     name rclavicle
     direction -0.963658 0.245183 -0.106063   
     length 3.43472  
     axis 0 0 0   XYZ 
    dof ry rz
    limits (-10.0 20.0)
           (-20.0 0.0)
  end
  begin
     id 25 
     name rhumerus
     direction -1 -4.48963e-011 -1.64784e-027  
     length 5.10161   
     axis -180 30 90   XYZ
    dof rx ry rz
    limits (-90.0 60.0)
           (-90.0 90.0)
           (-90.0 90.0)
  end
  begin
     id 26 
     name rradius
     direction -1 -4.48969e-011 -2.87943e-027   
     length 3.23267   
     axis -180 30 90   XYZ
    dof rx
    limits (-10.0 170.0)
  end
  begin
     id 27 
     name rwrist
     direction -1 -4.48982e-011 -1.32705e-026   
     length 1.61633   
     axis 9.60836e-015 -90 -90   XYZ
    dof ry
    limits (-180.0 0.0)
  end
  begin
     id 28
     name rhand
     direction -1 -4.48963e-011 -2.65409e-026   
     length 0.702   
     axis 1.69354e-014 -90 -90   XYZ
    dof rx rz
    limits (-90.0 90.0)
           (-45.0 45.0)
  end
  begin
     id 29
     name rfingers
     direction -1 -4.48934e-011 -5.30819e-026   
     length 0.565971   
     axis 3.38708e-014 -90 -90   XYZ
    dof rx
    limits (0.0 90.0)
  end
  begin
     id 30
     name rthumb
     direction -0.707107 -6.34908e-011 0.707107   
     length 0.812624   
     axis -90 -45 -2.85299e-015   XYZ
    dof rx rz
    limits (-45.0 45.0)
           (-45.0 45.0)
  end
:hierarchy
  begin
    root lhipjoint rhipjoint lowerback
    lhipjoint lfemur
    lfemur ltibia
    ltibia lfoot
    lfoot ltoes
    rhipjoint rfemur
    rfemur rtibia
    rtibia rfoot
    rfoot rtoes
    lowerback upperback
    upperback thorax
    thorax lowerneck lclavicle rclavicle
    lowerneck upperneck
    upperneck head
    lclavicle lhumerus
    lhumerus lradius
    lradius lwrist
    lwrist lhand lthumb
    lhand lfingers
    rclavicle rhumerus
    rhumerus rradius
    rradius rwrist
    rwrist rhand rthumb
    rhand rfingers
  end

#!OML:ASF \\sashay\E\basketball\basketball\Project 1\Capture day 1\Session 1\Subject.ASF
:FULLY-SPECIFIED
:DEGREES
34
root -26.6467 13.5648 -0.290422 27.7413 79.7032 15.1034
lowerback 24.6427 -0.63028 -15.8869
upperback 9.36042 -3.65045 0.0656899
thorax -1.94071 -1.90552 10.027
lowerneck -8.45984 -2.61872 -9.96675
upperneck -14.1359 -0.192853 22.9427
head -2.43399 0.0623386 9.00016
rclavicle 1.74931e-014 -5.00937e-014
rhumerus -10.2563 -44.782 -71.7867
rradius 64.0345
rwrist -40.0917
rhand -14.7403 23.2977
rfingers 7.12502
rthumb 11.4152 -6.3716
lclavicle 1.74931e-014 -5.00937e-014
lhumerus 23.492 -7.60189 77.8068
lradius 48.8546
lwrist 14.8198
lhand -23.5582 23.181
lfingers 7.12502
lthumb 2.90399 53.141
rfemur -71.3074 -26.6773 17.4566
rtibia 85.0232
rfoot -18.7746 -9.8465
rtoes -24.0111
lfemur -5.47108 14.8385 4.9877
ltibia 42.197
lfoot -17.8252 2.26707
ltoes -54.8737
35
root -26.2515 13.6395 -0.20067 31.0583 79.3252 17.5815
lowerback 24.8095 -0.904906 -15.559
upperback 9.09363 -3.97158 0.834239
thorax -2.2052 -2.05347 10.8165
lowerneck -8.38615 -2.48177 -10.2937
upperneck -14.7166 -0.0403454 21.6753
head -2.67327 0.14826 8.63988
rclavicle 5.80451e-014 3.4191e-014
rhumerus -7.76984 -42.2198 -73.0458
rradius 67.2137
rwrist -37.3819
rhand -15.6785 24.8457
rfingers 7.12502
rthumb 10.5103 -4.87152
lclavicle 5.80451e-014 3.4191e-014
lhumerus 22.9128 -9.36241 78.7989
lradius 52.0224
lwrist 14.685
lhand -24.4608 22.7285
lfingers 7.12502
lthumb 2.03228 52.6985
rfemur -73.029 -26.5848 17.4565
rtibia 82.3612
rfoot -18.0046 -10.3409
rtoes -25.6592
lfemur -4.10681 13.3947 3.89592
ltibia 40.4522
lfoot -15.5774 3.31986
ltoes -53.6728
36
root -25.846 13.7165 -0.110316 33.8867 78.8878 19.6954
lowerback 24.0609 -1.56057 -13.9131
upperback 9.55067 -4.27696 0.552147
thorax -1.44825 -2.23401 9.54514
lowerneck -8.40915 -2.42148 -9.57229
upperneck -15.7319 0.102872 20.8303
head -3.01824 0.182023 8.24671
rclavicle 2.94201e-014 -3.4191e-014
rhumerus -4.70903 -40.6927 -76.3081
rradius 70.4785
rwrist -33.326
rhand -16.8417 26.241
rfingers 7.12502
rthumb 9.38812 -3.52988
lclavicle 2.94201e-014 -3.4191e-014
lhumerus 23.1348 -12.1708 77.395
lradius 55.4411
lwrist 14.6098
lhand -24.2888 21.8556
lfingers 7.12502
lthumb 2.1984 51.824
rfemur -74.3448 -26.668 17.4295
rtibia 79.6411
rfoot -16.7769 -10.5613
rtoes -26.4348
lfemur -2.71676 11.776 2.766
ltibia 38.8623
lfoot -13.1067 4.55339
ltoes -51.5861
37
root -25.4286 13.7979 -0.0199831 35.9921 78.3686 21.2659
lowerback 24.6159 -1.75034 -13.2322
upperback 9.16502 -4.46993 1.33492
thorax -2.1108 -2.27596 10.1464
lowerneck -8.68441 -2.23691 -9.90902
upperneck -15.5189 0.132252 19.1182
head -2.95714 0.264428 7.71754
rclavicle 5.80451e-014 -5.56597e-014
rhumerus -2.82311 -37.555 -76.8196
rradius 73.4978
rwrist -28.6328
rhand -18.202 27.2649
rfingers 7.12502
rthumb 8.07534 -2.56085
lclavicle 5.80451e-014 -5.56597e-014
lhumerus 21.7288 -14.1417 77.9112
lradius 58.8223
lwrist 13.7303
lhand -24.5365 23.772
lfingers 7.12502
lthumb 1.9592 53.7428
rfemur -75.2184 -26.8199 17.3948
rtibia 76.9729
rfoot -14.8115 -10.6686
rtoes -27.9032
lfemur -1.24032 9.98084 1.5825
ltibia 37.4416
lfoot -10.5998 6.18201
ltoes -48.4117
38
root -25.0056 13.8701 0.0706701 37.834 77.6661 22.5932
lowerback 24.254 -2.10117 -11.7712
upperback 9.38598 -4.52254 1.37497
thorax -1.8367 -2.29551 9.32572
lowerneck -8.84537 -2.20986 -9.52579
upperneck -16.077 0.109273 17.9523
head -3.12392 0.26118 7.26996
rclavicle 2.8625e-014 -1.15295e-014
rhumerus -0.266553 -35.0311 -78.6178
rradius 76.3453
rwrist -23.0895
rhand -19.5627 28.0584
rfingers 7.12502
rthumb 6.76196 -1.81362
lclavicle 2.8625e-014 -1.15295e-014
lhumerus 21.3266 -16.8975 76.7444
lradius 61.4027
lwrist 11.9768
lhand -25.407 21.3384
lfingers 7.12502
lthumb 1.11843 51.3152
rfemur -75.9773 -26.9516 17.2902
rtibia 74.4896
rfoot -12.436 -10.3654
rtoes -30.0707
lfemur 0.0754848 8.36743 0.230929
ltibia 36.3045
lfoot -8.05356 8.06466
ltoes -45.3146
39
root -24.5797 13.9332 0.160578 39.1951 76.8755 23.5119
lowerback 24.5179 -2.15579 -10.9884
upperback 9.22652 -4.43115 2.12402
thorax -2.18032 -2.22631 9.73022
lowerneck -9.02087 -2.21846 -9.88962
upperneck -16.5348 -0.00916473 16.3772
head -3.25285 0.263912 6.82129
rclavicle 2.74323e-014 2.78299e-014
rhumerus 1.91343 -31.235 -78.6643
rradius 78.809
rwrist -17.3722
rhand -20.8497 28.8599
rfingers 7.12502
rthumb 5.51942 -1.04819
lclavicle 2.74323e-014 2.78299e-014
lhumerus 19.9275 -18.8549 77.1259
lradius 63.9792
lwrist 9.92043
lhand -25.3467 22.9348
lfingers 7.12502
lthumb 1.17671 52.9113
rfemur -76.5078 -27.1531 17.1328
rtibia 72.3506
rfoot -10.5425 -9.09603
rtoes -30.3675
lfemur 1.21822 7.0002 -1.15779
ltibia 35.5567
lfoot -5.4982 9.69439
ltoes -43.7084
40
root -24.1493 13.9924 0.248974 40.0488 76.0907 24.0769
lowerback 24.3866 -2.34357 -9.7291
upperback 9.41105 -4.33684 2.51742
thorax -2.0296 -2.1738 9.40517
lowerneck -9.26173 -2.22287 -9.84266
upperneck -16.9784 -0.131861 14.8607
head -3.36956 0.25184 6.32231
rclavicle -1.91827e-014 5.28767e-014
rhumerus 4.42369 -27.4783 -79.1254
rradius 80.8242
rwrist -11.6125
rhand -22.2618 29.7559
rfingers 7.12502
rthumb 4.15597 -0.183267
lclavicle -1.91827e-014 5.28767e-014
lhumerus 18.5244 -20.7983 76.9861
lradius 66.4389
lwrist 8.1512
lhand -25.56 22.5972
lfingers 7.12502
lthumb 0.97071 52.5747
rfemur -76.7299 -27.4942 17.0343
rtibia 70.6214
rfoot -9.01305 -7.77203
rtoes -30.1392
lfemur 2.19286 5.69152 -2.55952
ltibia 35.3631
lfoot -3.0764 10.8333
ltoes -42.8164
41
root -23.7174 14.0443 0.338483 40.1215 75.2679 23.9159
lowerback 24.0388 -2.61481 -7.88367
upperback 9.67736 -4.23404 2.46704
thorax -1.78443 -2.09161 8.21943
lowerneck -8.98327 -2.12173 -9.40284
upperneck -17.4556 -0.155694 13.5325
head -3.58948 0.242822 5.82278
rclavicle 9.13913e-014 -2.72335e-014
rhumerus 6.78136 -23.775 -79.7758
rradius 82.1257
rwrist -5.93297
rhand -23.9017 30.6806
rfingers 7.12502
rthumb 2.57234 0.716377
lclavicle 9.13913e-014 -2.72335e-014
lhumerus 16.9712 -22.9963 76.1116
lradius 68.516
lwrist 6.83882
lhand -25.9034 20.6269
lfingers 7.12502
lthumb 0.639039 50.6057
rfemur -76.8099 -27.7338 17.0731
rtibia 69.3729
rfoot -7.84935 -6.83954
rtoes -30.5724
lfemur 2.89138 4.76499 -3.87253
ltibia 35.8685
lfoot -1.10263 11.4026
ltoes -38.444
42
root -23.2911 14.0778 0.430812 39.6869 74.3868 23.2508
lowerback 24.2136 -2.59487 -6.62736
upperback 9.60462 -3.92555 2.98551
thorax -2.08507 -1.90264 8.01726
lowerneck -9.07713 -2.05017 -9.46281
upperneck -17.3207 -0.270434 11.9644
head -3.55859 0.240193 5.32177
rclavicle 8.38871e-014 -4.01545e-014
rhumerus 8.80285 -19.309 -78.7479
rradius 82.4612
rwrist -0.603596
rhand -25.5434 31.9993
rfingers 7.12502
rthumb 0.986706 2.02181
lclavicle 8.38871e-014 -4.01545e-014
lhumerus 14.5842 -24.6856 76.6465
lradius 70.0999
lwrist 5.69763
lhand -26.6925 20.2238
lfingers 7.12502
lthumb -0.123096 50.2035
rfemur -76.8053 -27.7657 17.1393
rtibia 68.6368
rfoot -6.97935 -6.06081
rtoes -30.8076
lfemur 3.2255 4.4252 -5.06849
ltibia 37.1492
lfoot -0.068626 11.1726
ltoes -30.6119
43
root -22.8709 14.0881 0.526095 39.1915 73.4022 22.5414
lowerback 24.1845 -2.52158 -5.17947
upperback 9.74083 -3.4955 3.17791
thorax -2.10656 -1.65633 7.28468
lowerneck -9.2126 -2.10939 -9.18716
upperneck -17.3064 -0.52572 10.6512
head -3.53795 0.14335 4.85106
rclavicle -2.70347e-014 0
rhumerus 11.0496 -15.4472 -77.8403
rradius 81.8156
rwrist 4.66904
rhand -27.0697 34.3085
rfingers 7.12502
rthumb -0.487364 4.32934
lclavicle -2.70347e-014 0
lhumerus 12.4228 -26.5706 76.7786
lradius 71.1981
lwrist 5.0678
lhand -26.3325 20.5052
lfingers 7.12502
lthumb 0.224561 50.4848
rfemur -76.7033 -27.6348 17.1299
rtibia 68.4137
rfoot -6.33351 -5.72876
rtoes -29.9276
lfemur 3.16658 4.44786 -6.30669
ltibia 39.2052
lfoot 0.267815 9.22951
ltoes -28.8406
